<?xml version="1.0" encoding="iso-8859-1"?>
<!-- Generator: Adobe Illustrator 19.0.0, SVG Export Plug-In . SVG Version: 6.00 Build 0)  -->
<svg version="1.1" id="Layer_1" xmlns="http://www.w3.org/2000/svg" xmlns:xlink="http://www.w3.org/1999/xlink" x="0px" y="0px"
	 viewBox="0 0 511.999 511.999" style="enable-background:new 0 0 511.999 511.999;" xml:space="preserve">
<g>
	<g>
		<g>
			<path d="M262.412,88.816c17.244,0,31.273-14.03,31.273-31.273c0-4.313-1.303-12.465-12.573-33.374
				c-5.87-10.892-11.65-20.037-11.893-20.422C267.742,1.414,265.173,0,262.412,0c-2.761,0-5.33,1.414-6.807,3.747
				c-0.244,0.385-6.023,9.53-11.893,20.422c-11.269,20.909-12.572,29.06-12.572,33.374
				C231.139,74.786,245.168,88.816,262.412,88.816z M262.412,23.663c8.132,14.143,15.158,28.803,15.158,33.88
				c0,8.358-6.799,15.158-15.158,15.158c-8.358,0-15.158-6.8-15.158-15.158C247.254,52.466,254.28,37.807,262.412,23.663z"/>
			<path d="M465.79,372.419h-38.024V237.046c9.775-9.398,15.876-22.591,15.876-37.19v-26.133c0-16.453-13.386-29.838-29.839-29.838
				H270.469V98.086h-16.115v45.799H108.864c-16.453,0-29.838,13.386-29.838,29.838v26.133c0,15.644,7.005,29.674,18.031,39.148
				v37.259l-22.224-24.386c-0.676-0.737-1.406-1.466-2.111-2.109c-6.001-5.469-13.774-8.482-21.889-8.482
				c-9.129,0-17.888,3.868-24.035,10.611c-12.073,13.249-11.118,33.85,2.13,45.923l68.127,62.083v12.516H56.877
				c-15.37,0-27.876,12.505-27.876,27.877c0,13.294,9.356,24.437,21.828,27.207l16.818,51.001c1.089,3.302,4.174,5.534,7.652,5.534
				h99.074c20.608,14.882,50.582,27.957,74.946,27.96h0.006c12.571,0,22.437-3.493,29.325-10.381
				c4.548-4.548,7.604-10.484,9.159-17.579h159.559c3.478,0,6.563-2.231,7.652-5.534l16.818-51.003
				c12.472-2.771,21.828-13.914,21.828-27.207C493.666,384.926,481.16,372.419,465.79,372.419z M95.139,199.856v-26.133
				c0-7.568,6.156-13.723,13.723-13.723h304.94c7.568,0,13.724,6.156,13.724,13.723v26.133c0,19.577-15.928,35.505-35.505,35.505
				c-19.578,0-35.506-15.928-35.506-35.505c0-4.45-3.608-8.057-8.057-8.057c-4.45,0-8.057,3.608-8.057,8.057
				c0,19.577-15.928,35.505-35.505,35.505s-35.504-15.928-35.504-35.505c0-4.45-3.608-8.057-8.057-8.057s-8.057,3.608-8.057,8.057
				c0,19.577-15.928,35.505-35.506,35.505c-19.576,0-35.503-15.928-35.503-35.505c0-4.45-3.608-8.057-8.057-8.057
				c-4.45,0-8.057,3.608-8.057,8.057c0,19.577-15.929,35.505-35.508,35.505C111.067,235.361,95.139,219.434,95.139,199.856z
				 M311.725,331.512h99.926v40.907h-99.926V331.512z M311.724,315.397v-64.374c15.426-2.049,28.723-10.932,36.733-23.5
				c9.172,14.389,25.271,23.952,43.564,23.952c6.947,0,13.573-1.388,19.629-3.887v67.808H311.724z M132.719,315.397l-19.548-21.451
				v-45.52c5.461,1.97,11.343,3.05,17.474,3.05c18.293,0,34.393-9.563,43.564-23.952c9.172,14.389,25.27,23.952,43.562,23.952
				c18.292,0,34.392-9.563,43.564-23.952c7.58,11.894,19.902,20.473,34.276,23.097v64.776H132.719z M295.609,331.512v40.907h-60.418
				c-11.654-7.144-24.851-11.063-37.985-11.063c-6.895,0-13.514,1.053-19.748,3.135l-30.053-32.979H295.609z M56.877,412.055v0.001
				c-6.485,0-11.761-5.276-11.761-11.761c0-6.486,5.276-11.762,11.761-11.762h71.597l13.048,11.89
				c-1.264,3.783-2.14,7.677-2.644,11.632H56.877z M81.127,467.925l-13.109-39.753h70.831c1.677,14.043,7.727,28.001,17.669,39.753
				H81.127z M267.256,490.224c-3.757,3.757-9.788,5.661-17.93,5.661h-0.004c-25.026-0.003-60.581-18.119-76.838-34.375
				c-16.966-16.966-22.633-41.08-14.102-60.005c1.433-3.179,0.659-6.919-1.919-9.267L39.783,285.909
				c-6.68-6.088-7.161-16.477-1.074-23.158c3.099-3.401,7.519-5.351,12.124-5.351c4.089,0,8.008,1.519,11.032,4.276
				c0.358,0.326,0.736,0.705,1.076,1.075l106.33,116.68c2.349,2.577,6.088,3.352,9.267,1.919c5.708-2.574,11.99-3.878,18.669-3.878
				c14.844,0,29.91,6.553,41.337,17.98C261.219,418.128,283.964,473.516,267.256,490.224z M441.54,467.925H288.881
				c-0.475-7.974-2.253-16.817-5.363-26.363c-1.45-4.451-3.175-8.943-5.098-13.39h176.228L441.54,467.925z M465.79,412.057H270.423
				c-4.967-8.82-10.567-16.932-16.331-23.522h211.697c6.485,0,11.761,5.276,11.761,11.762
				C477.551,406.781,472.275,412.057,465.79,412.057z"/>
		</g>
	</g>
</g>
<g>
</g>
<g>
</g>
<g>
</g>
<g>
</g>
<g>
</g>
<g>
</g>
<g>
</g>
<g>
</g>
<g>
</g>
<g>
</g>
<g>
</g>
<g>
</g>
<g>
</g>
<g>
</g>
<g>
</g>
</svg>
